<?xml version="1.0" encoding="utf-8"?>
<!-- Generator: Adobe Illustrator 22.1.0, SVG Export Plug-In . SVG Version: 6.00 Build 0)  -->
<svg version="1.1" id="Layer_2" xmlns="http://www.w3.org/2000/svg" xmlns:xlink="http://www.w3.org/1999/xlink" x="0px" y="0px"
	 viewBox="0 0 184 148" style="enable-background:new 0 0 184 148;" xml:space="preserve">
<style type="text/css">
	.st0{fill:#FFFFFF;}
</style>
<g>
	<g>
		<g>
			<path class="st0" d="M149,23.6h-27.2c-1.4,0-2.5,1.1-2.5,2.5s1.1,2.5,2.5,2.5H149c1.4,0,2.5-1.1,2.5-2.5S150.4,23.6,149,23.6z"/>
		</g>
	</g>
	<g>
		<g>
			<path class="st0" d="M149,37.1h-27.2c-1.4,0-2.5,1.1-2.5,2.5c0,1.4,1.1,2.5,2.5,2.5H149c1.4,0,2.5-1.1,2.5-2.5
				C151.5,38.2,150.4,37.1,149,37.1z"/>
		</g>
	</g>
	<g>
		<g>
			<path class="st0" d="M149,50.6h-27.2c-1.4,0-2.5,1.1-2.5,2.5s1.1,2.5,2.5,2.5H149c1.4,0,2.5-1.1,2.5-2.5S150.4,50.6,149,50.6z"/>
		</g>
	</g>
	<g>
		<g>
			<path class="st0" d="M149,64.1h-27.2c-1.4,0-2.5,1.1-2.5,2.5s1.1,2.5,2.5,2.5H149c1.4,0,2.5-1.1,2.5-2.5S150.4,64.1,149,64.1z"/>
		</g>
	</g>
	<g>
		<g>
			<path class="st0" d="M149,77.6h-27.2c-1.4,0-2.5,1.1-2.5,2.5s1.1,2.5,2.5,2.5H149c1.4,0,2.5-1.1,2.5-2.5
				C151.5,78.7,150.4,77.6,149,77.6z"/>
		</g>
	</g>
	<g>
		<g>
			<path class="st0" d="M149,91.1h-27.2c-1.4,0-2.5,1.1-2.5,2.5s1.1,2.5,2.5,2.5H149c1.4,0,2.5-1.1,2.5-2.5S150.4,91.1,149,91.1z"/>
		</g>
	</g>
	<g>
		<g>
			<path class="st0" d="M110.5,23.6h-1.9c-1.4,0-2.5,1.1-2.5,2.5s1.1,2.5,2.5,2.5h1.9c1.4,0,2.5-1.1,2.5-2.5S111.9,23.6,110.5,23.6z
				"/>
		</g>
	</g>
	<g>
		<g>
			<path class="st0" d="M110.5,37.1h-1.9c-1.4,0-2.5,1.1-2.5,2.5c0,1.4,1.1,2.5,2.5,2.5h1.9c1.4,0,2.5-1.1,2.5-2.5
				C113.1,38.2,111.9,37.1,110.5,37.1z"/>
		</g>
	</g>
	<g>
		<g>
			<path class="st0" d="M110.5,50.6h-1.9c-1.4,0-2.5,1.1-2.5,2.5s1.1,2.5,2.5,2.5h1.9c1.4,0,2.5-1.1,2.5-2.5S111.9,50.6,110.5,50.6z
				"/>
		</g>
	</g>
	<g>
		<g>
			<path class="st0" d="M110.5,64.1h-1.9c-1.4,0-2.5,1.1-2.5,2.5s1.1,2.5,2.5,2.5h1.9c1.4,0,2.5-1.1,2.5-2.5S111.9,64.1,110.5,64.1z
				"/>
		</g>
	</g>
	<g>
		<g>
			<path class="st0" d="M110.5,77.6h-1.9c-1.4,0-2.5,1.1-2.5,2.5s1.1,2.5,2.5,2.5h1.9c1.4,0,2.5-1.1,2.5-2.5
				C113.1,78.7,111.9,77.6,110.5,77.6z"/>
		</g>
	</g>
	<g>
		<g>
			<path class="st0" d="M110.5,91.1h-1.9c-1.4,0-2.5,1.1-2.5,2.5s1.1,2.5,2.5,2.5h1.9c1.4,0,2.5-1.1,2.5-2.5S111.9,91.1,110.5,91.1z
				"/>
		</g>
	</g>
	<g>
		<g>
			<path class="st0" d="M75.4,23.6H48.2c-1.4,0-2.5,1.1-2.5,2.5s1.1,2.5,2.5,2.5h27.2c1.4,0,2.5-1.1,2.5-2.5S76.8,23.6,75.4,23.6z"
				/>
		</g>
	</g>
	<g>
		<g>
			<path class="st0" d="M75.4,37.1H48.2c-1.4,0-2.5,1.1-2.5,2.5c0,1.4,1.1,2.5,2.5,2.5h27.2c1.4,0,2.5-1.1,2.5-2.5
				C78,38.2,76.8,37.1,75.4,37.1z"/>
		</g>
	</g>
	<g>
		<g>
			<path class="st0" d="M75.4,50.6H48.2c-1.4,0-2.5,1.1-2.5,2.5s1.1,2.5,2.5,2.5h27.2c1.4,0,2.5-1.1,2.5-2.5S76.8,50.6,75.4,50.6z"
				/>
		</g>
	</g>
	<g>
		<g>
			<path class="st0" d="M75.4,64.1H48.2c-1.4,0-2.5,1.1-2.5,2.5s1.1,2.5,2.5,2.5h27.2c1.4,0,2.5-1.1,2.5-2.5S76.8,64.1,75.4,64.1z"
				/>
		</g>
	</g>
	<g>
		<g>
			<path class="st0" d="M75.4,77.6H48.2c-1.4,0-2.5,1.1-2.5,2.5s1.1,2.5,2.5,2.5h27.2c1.4,0,2.5-1.1,2.5-2.5
				C78,78.7,76.8,77.6,75.4,77.6z"/>
		</g>
	</g>
	<g>
		<g>
			<path class="st0" d="M75.4,91.1H48.2c-1.4,0-2.5,1.1-2.5,2.5s1.1,2.5,2.5,2.5h27.2c1.4,0,2.5-1.1,2.5-2.5S76.8,91.1,75.4,91.1z"
				/>
		</g>
	</g>
	<g>
		<g>
			<path class="st0" d="M37,23.6h-1.9c-1.4,0-2.5,1.1-2.5,2.5s1.1,2.5,2.5,2.5H37c1.4,0,2.5-1.1,2.5-2.5S38.4,23.6,37,23.6z"/>
		</g>
	</g>
	<g>
		<g>
			<path class="st0" d="M37,37.1h-1.9c-1.4,0-2.5,1.1-2.5,2.5c0,1.4,1.1,2.5,2.5,2.5H37c1.4,0,2.5-1.1,2.5-2.5
				C39.5,38.2,38.4,37.1,37,37.1z"/>
		</g>
	</g>
	<g>
		<g>
			<path class="st0" d="M37,50.6h-1.9c-1.4,0-2.5,1.1-2.5,2.5s1.1,2.5,2.5,2.5H37c1.4,0,2.5-1.1,2.5-2.5S38.4,50.6,37,50.6z"/>
		</g>
	</g>
	<g>
		<g>
			<path class="st0" d="M37,64.1h-1.9c-1.4,0-2.5,1.1-2.5,2.5s1.1,2.5,2.5,2.5H37c1.4,0,2.5-1.1,2.5-2.5S38.4,64.1,37,64.1z"/>
		</g>
	</g>
	<g>
		<g>
			<path class="st0" d="M37,77.6h-1.9c-1.4,0-2.5,1.1-2.5,2.5s1.1,2.5,2.5,2.5H37c1.4,0,2.5-1.1,2.5-2.5
				C39.5,78.7,38.4,77.6,37,77.6z"/>
		</g>
	</g>
	<g>
		<g>
			<path class="st0" d="M37,91.1h-1.9c-1.4,0-2.5,1.1-2.5,2.5s1.1,2.5,2.5,2.5H37c1.4,0,2.5-1.1,2.5-2.5S38.4,91.1,37,91.1z"/>
		</g>
	</g>
	<g>
		<g>
			<path class="st0" d="M176.3,78.4c-1.4,0-2.5,1.1-2.5,2.5v48c0,1.3-1,2.3-2.3,2.3h-67.1c-2.5,0-4.7,1.6-5.5,3.9
				c-0.5,1.4-1.4,2.6-2.6,3.5c-1.1,0.8-1.4,2.4-0.5,3.6c0.8,1.1,2.4,1.4,3.6,0.5c2-1.5,3.5-3.6,4.3-5.9c0.1-0.2,0.3-0.4,0.6-0.4
				h67.1c4.1,0,7.4-3.3,7.4-7.4v-48C178.9,79.5,177.7,78.4,176.3,78.4z"/>
		</g>
	</g>
	<g>
		<g>
			<path class="st0" d="M171.5,14.6h-3.2v-4c0-3.2-2.6-5.8-5.8-5.8h-56.5c-7.9,0-12,3.6-14.1,7c-2.1-3.4-6.2-7-14.1-7H21.4
				c-3.2,0-5.8,2.6-5.8,5.8v4h-3.2c-4.1,0-7.4,3.3-7.4,7.4v107c0,4.1,3.3,7.4,7.4,7.4h67.1c0.3,0,0.6,0.2,0.7,0.5
				c0.8,2.3,2.3,4.3,4.2,5.8c1.1,0.9,2.7,0.6,3.6-0.5s0.6-2.7-0.5-3.6c-1.2-0.9-2-2.1-2.5-3.4c-0.8-2.3-3-3.9-5.5-3.9H12.5
				c-1.3,0-2.3-1-2.3-2.3V22c0-1.3,1-2.3,2.3-2.3h3.2v99c0,3.7,3,6.7,6.7,6.7h139.2c3.7,0,6.7-3,6.7-6.7v-99h3.2
				c1.3,0,2.3,1,2.3,2.3V69c0,1.4,1.1,2.5,2.5,2.5s2.5-1.1,2.5-2.5V22C178.9,17.9,175.6,14.6,171.5,14.6z M22.4,120.3L22.4,120.3
				c-0.9,0-1.7-0.7-1.7-1.7V113c0,0,0.1,0,0.1,0c0,0,0.1,0,0.1,0c0.2,0,0.4,0,0.5,0h0h56.4c6.1,0,9.6,2.9,11,7.2L22.4,120.3
				L22.4,120.3z M89.5,111.9L89.5,111.9c-3.2-2.8-7.3-3.9-11.5-3.9H21.5c-0.3,0-0.6-0.2-0.7-0.5c0-0.1-0.1-0.2-0.1-0.3
				c0-4,0-93.2,0-96.6c0-0.4,0.3-0.7,0.7-0.7h56.5c11.1,0,11.5,9.4,11.5,10.4V111.9z M94.5,20.3c0-1.1,0.4-10.4,11.5-10.4h56.5
				c0.4,0,0.7,0.3,0.7,0.7v96.6h0c0,0.4-0.4,0.8-0.8,0.8h-56.4c-4.2,0-8.4,1.1-11.5,3.9V20.3z M163.3,118.6L163.3,118.6
				c0,0.9-0.7,1.7-1.7,1.7H95.1c0,0,0,0,0,0c1.5-4.7,5.1-6.9,9.9-7.2c0.3,0,0.7,0,1,0h56.4c0.2,0,0.4,0,0.5,0c0,0,0.1,0,0.1,0
				c0,0,0.1,0,0.1,0V118.6z"/>
		</g>
	</g>
</g>
</svg>
