<?xml version="1.0" encoding="utf-8"?>
<!-- Generator: Adobe Illustrator 22.1.0, SVG Export Plug-In . SVG Version: 6.00 Build 0)  -->
<svg version="1.1" id="Capa_1" xmlns="http://www.w3.org/2000/svg" xmlns:xlink="http://www.w3.org/1999/xlink" x="0px" y="0px"
	 viewBox="0 0 512 512" style="enable-background:new 0 0 512 512;" xml:space="preserve">
<style type="text/css">
	.st0{fill:#FFFFFF;}
</style>
<g>
	<g>
		<g>
			<path class="st0" d="M354.2,53.2L44,178.9c-20.8,8.4-30.8,32.1-22.4,52.9l85.4,210.8c8.4,20.8,32.1,30.8,52.9,22.4l310.2-125.7
				c20.8-8.4,30.8-32.1,22.4-52.9L407.1,75.5C398.7,54.8,375,44.7,354.2,53.2z M351.9,71.6l-15.2,36l-132.2,53.6
				c-4.2,1.7-6.2,6.4-4.5,10.6c1.7,4.2,6.4,6.2,10.6,4.5l117.1-47.5l-12.5,29.6L259.5,181c-4.2,1.7-6.2,6.4-4.5,10.6
				c1.7,4.2,6.4,6.2,10.6,4.5l40.6-16.5l-21.9,51.7c-10.8,25.6-40.5,37.6-66.1,26.8L58.5,190.5L351.9,71.6z M464.1,324.2
				L153.9,449.9c-3.7,1.5-7.6,2-11.3,1.7l21.3-50.4c1.7-4.1-0.2-8.9-4.3-10.6c-2.1-0.9-4.3-0.8-6.2,0s-3.6,2.3-4.4,4.4l-21.1,50
				c-2.4-2.3-4.3-5.1-5.6-8.3L36.7,225.7c-3.5-8.7-1.6-18.4,4.1-25.1c0.2,0.1,0.5,0.2,0.7,0.4l160.6,68l-28.3,66.8
				c-1.7,4.1,0.2,8.9,4.3,10.6c4.1,1.7,8.9-0.2,10.6-4.3l28.4-67.1c30.7,10,64.5-3.7,79.6-32.2l176.6,74.7
				C470.9,320.4,467.8,322.7,464.1,324.2z M477.5,292.5c1.3,3.2,1.9,6.6,1.8,9.9l-175.9-74.4l68-160.6c0.1-0.3,0.2-0.5,0.3-0.8
				c8.8,0.8,16.9,6.4,20.4,15.1L477.5,292.5z"/>
		</g>
	</g>
</g>
</svg>
