<?xml version="1.0" encoding="utf-8"?>
<!-- Generator: Adobe Illustrator 22.1.0, SVG Export Plug-In . SVG Version: 6.00 Build 0)  -->
<svg version="1.1" id="Layer_3" xmlns="http://www.w3.org/2000/svg" xmlns:xlink="http://www.w3.org/1999/xlink" x="0px" y="0px"
	 viewBox="0 0 184 148" style="enable-background:new 0 0 184 148;" xml:space="preserve">
<style type="text/css">
	.st0{fill:#FFFFFF;}
</style>
<g>
	<g>
		<g>
			<path class="st0" d="M155.8,19.1c-2.7,0-123.5,0-127.6,0c-1.9,0-3.4,1.5-3.4,3.4c0,1.3,0,83.2,0,85.6c0,1.9,1.5,3.4,3.4,3.4
				h127.6c1.9,0,3.4-1.5,3.4-3.4c0-2.4,0-84.2,0-85.6C159.2,20.6,157.7,19.1,155.8,19.1z M44,24.3h110.1v6.6H44V24.3z M29.9,24.3
				h8.9v6.6h-8.9V24.3z M154.1,106.4H29.9V36c2.4,0,122.6,0,124.1,0L154.1,106.4L154.1,106.4z"/>
		</g>
	</g>
	<g>
		<g>
			<path class="st0" d="M139.2,58.8h-42c-1.4,0-2.6,1.2-2.6,2.6c0,1.4,1.2,2.6,2.6,2.6h42c1.4,0,2.6-1.2,2.6-2.6
				C141.8,60,140.6,58.8,139.2,58.8z"/>
		</g>
	</g>
	<g>
		<g>
			<path class="st0" d="M112.1,43.9H83.4c-1.4,0-2.6,1.2-2.6,2.6c0,1.4,1.2,2.6,2.6,2.6h28.7c1.4,0,2.6-1.2,2.6-2.6
				C114.7,45.1,113.6,43.9,112.1,43.9z"/>
		</g>
	</g>
	<g>
		<g>
			<path class="st0" d="M139.2,69.9h-42c-1.4,0-2.6,1.2-2.6,2.6s1.2,2.6,2.6,2.6h42c1.4,0,2.6-1.2,2.6-2.6S140.6,69.9,139.2,69.9z"
				/>
		</g>
	</g>
	<g>
		<g>
			<path class="st0" d="M139.2,81h-42c-1.4,0-2.6,1.2-2.6,2.6s1.2,2.6,2.6,2.6h42c1.4,0,2.6-1.2,2.6-2.6S140.6,81,139.2,81z"/>
		</g>
	</g>
	<g>
		<g>
			<path class="st0" d="M139.2,92.1h-42c-1.4,0-2.6,1.2-2.6,2.6s1.2,2.6,2.6,2.6h42c1.4,0,2.6-1.2,2.6-2.6S140.6,92.1,139.2,92.1z"
				/>
		</g>
	</g>
	<g>
		<g>
			<path class="st0" d="M86.8,58.8h-42c-1.4,0-2.6,1.2-2.6,2.6c0,1.4,1.2,2.6,2.6,2.6h42c1.4,0,2.6-1.2,2.6-2.6
				C89.3,60,88.2,58.8,86.8,58.8z"/>
		</g>
	</g>
	<g>
		<g>
			<path class="st0" d="M86.8,69.9h-42c-1.4,0-2.6,1.2-2.6,2.6s1.2,2.6,2.6,2.6h42c1.4,0,2.6-1.2,2.6-2.6S88.2,69.9,86.8,69.9z"/>
		</g>
	</g>
	<g>
		<g>
			<path class="st0" d="M86.8,81h-42c-1.4,0-2.6,1.2-2.6,2.6s1.2,2.6,2.6,2.6h42c1.4,0,2.6-1.2,2.6-2.6S88.2,81,86.8,81z"/>
		</g>
	</g>
	<g>
		<g>
			<path class="st0" d="M86.8,92.1h-42c-1.4,0-2.6,1.2-2.6,2.6s1.2,2.6,2.6,2.6h42c1.4,0,2.6-1.2,2.6-2.6S88.2,92.1,86.8,92.1z"/>
		</g>
	</g>
	<g>
		<g>
			<path class="st0" d="M73.6,43.9h-3.8c-1.4,0-2.6,1.2-2.6,2.6c0,1.4,1.2,2.6,2.6,2.6h3.8c1.4,0,2.6-1.2,2.6-2.6
				C76.1,45.1,75,43.9,73.6,43.9z"/>
		</g>
	</g>
	<g>
		<g>
			<path class="st0" d="M171.1,116.8h-4.6c1.9-2.4,3.1-5.4,3.1-8.7V78.5c0-1.4-1.2-2.6-2.6-2.6c-1.4,0-2.6,1.2-2.6,2.6v29.6
				c0,4.8-3.9,8.7-8.7,8.7c-3.4,0-124.3,0-127.6,0c-4.8,0-8.7-3.9-8.7-8.7V22.5c0-4.8,3.9-8.7,8.7-8.7h127.6c4.8,0,8.7,3.9,8.7,8.7
				v43.9c0,1.4,1.2,2.6,2.6,2.6c1.4,0,2.6-1.2,2.6-2.6V22.5c0-7.6-6.2-13.8-13.8-13.8H28.2c-7.6,0-13.8,6.2-13.8,13.8v85.6
				c0,3.3,1.2,6.3,3.1,8.7h-4.6c-4.8,0-8.7,3.9-8.7,8.7v5c0,4.8,3.9,8.7,8.7,8.7H86c1.4,0,2.6-1.2,2.6-2.6c0-1.4-1.2-2.6-2.6-2.6
				H12.9c-2,0-3.6-1.6-3.6-3.6v-5c0-2,1.6-3.6,3.6-3.6c1.5,0,47.9,0,51.7,0v2.8c0,4.2,3.4,7.5,7.5,7.5h39.6c4.2,0,7.5-3.4,7.5-7.5
				v-2.8c3.8,0,50.3,0,51.7,0c2,0,3.6,1.6,3.6,3.6v5c0,2-1.6,3.6-3.6,3.6H98c-1.4,0-2.6,1.2-2.6,2.6c0,1.4,1.2,2.6,2.6,2.6h73.1
				c4.8,0,8.7-3.9,8.7-8.7v-5C179.8,120.7,175.9,116.8,171.1,116.8z M114.2,124.8L114.2,124.8c0,1.3-1.1,2.4-2.4,2.4H72.2
				c-1.3,0-2.4-1.1-2.4-2.4v-2.8h44.4L114.2,124.8L114.2,124.8z"/>
		</g>
	</g>
</g>
</svg>
