<?xml version="1.0" encoding="utf-8"?>
<!-- Generator: Adobe Illustrator 22.1.0, SVG Export Plug-In . SVG Version: 6.00 Build 0)  -->
<svg version="1.1" id="Capa_1" xmlns="http://www.w3.org/2000/svg" xmlns:xlink="http://www.w3.org/1999/xlink" x="0px" y="0px"
	 viewBox="0 0 512 512" style="enable-background:new 0 0 512 512;" xml:space="preserve">
<style type="text/css">
	.st0{fill:#FFFFFF;}
</style>
<g>
	<g>
		<path class="st0" d="M256,0C147.2,0,58.6,88.6,58.6,197.4c0,45.1,15.6,89.3,44,124.3c0,0.1,0.1,0.1,0.1,0.2l44.2,56.7
			c3.4,4.4,9.7,5.1,14,1.7c4.4-3.4,5.1-9.7,1.7-14l-44-56.3c-0.1-0.2-0.3-0.4-0.4-0.5c-25.7-31.5-39.8-71.3-39.8-112
			C78.6,99.6,158.2,20,256,20s177.4,79.6,177.4,177.4c0,41.1-14.4,81.2-40.6,112.9c-0.3,0.4-0.6,0.9-0.9,1.3L256,485.7L213.3,431
			c-3.4-4.4-9.7-5.1-14-1.7c-4.4,3.4-5.1,9.7-1.7,14l50.6,64.8c1.9,2.4,4.8,3.8,7.9,3.8c3.1,0,6-1.4,7.9-3.8l144.7-185.3
			c0.2-0.3,0.4-0.6,0.6-0.9c28.6-35.1,44.3-79.2,44.3-124.6C453.4,88.6,364.8,0,256,0z"/>
	</g>
</g>
<g>
	<g>
		<path class="st0" d="M373,132.1c-2.7-4.8-8.8-6.5-13.6-3.9c-4.8,2.7-6.5,8.8-3.9,13.6c24.7,44.3,16.9,100.3-19,136.2
			c-44.4,44.4-116.8,44.4-161.2,0c-44.4-44.4-44.4-116.8,0-161.2c35.6-35.6,89.4-43.7,133.9-20.2c4.9,2.6,10.9,0.7,13.5-4.2
			c2.6-4.9,0.7-10.9-4.2-13.5c-24.8-13.1-53.8-18.1-81.7-14.1c-28.8,4.1-55,17.2-75.7,37.9c-25.3,25.3-39.2,59-39.2,94.8
			c0,35.8,13.9,69.4,39.2,94.8c26.1,26.1,60.4,39.2,94.8,39.2s68.6-13.1,94.8-39.2c21-21,34.2-47.7,38.1-77.2
			C392.6,186.5,387,157,373,132.1z"/>
	</g>
</g>
<g>
	<g>
		<path class="st0" d="M263.1,98.6c-1.9-1.9-4.4-2.9-7.1-2.9s-5.2,1.1-7.1,2.9c-1.9,1.9-2.9,4.4-2.9,7.1s1.1,5.2,2.9,7.1
			c1.9,1.9,4.4,2.9,7.1,2.9s5.2-1.1,7.1-2.9c1.9-1.9,2.9-4.4,2.9-7.1C266,103,264.9,100.5,263.1,98.6z"/>
	</g>
</g>
<g>
	<g>
		<path class="st0" d="M263.1,282.1c-1.9-1.9-4.4-2.9-7.1-2.9s-5.2,1.1-7.1,2.9c-1.9,1.9-2.9,4.4-2.9,7.1s1.1,5.2,2.9,7.1
			c1.9,1.9,4.4,2.9,7.1,2.9s5.2-1.1,7.1-2.9c1.9-1.9,2.9-4.4,2.9-7.1C266,286.5,264.9,283.9,263.1,282.1z"/>
	</g>
</g>
<g>
	<g>
		<path class="st0" d="M354.8,190.3c-1.9-1.9-4.4-2.9-7.1-2.9c-2.6,0-5.2,1.1-7.1,2.9c-1.9,1.9-2.9,4.4-2.9,7.1
			c0,2.6,1.1,5.2,2.9,7.1c1.9,1.9,4.4,2.9,7.1,2.9c2.6,0,5.2-1.1,7.1-2.9c1.9-1.9,2.9-4.4,2.9-7.1S356.7,192.2,354.8,190.3z"/>
	</g>
</g>
<g>
	<g>
		<path class="st0" d="M171.3,190.3c-1.9-1.9-4.4-2.9-7.1-2.9c-2.6,0-5.2,1.1-7.1,2.9c-1.9,1.9-2.9,4.4-2.9,7.1
			c0,2.6,1.1,5.2,2.9,7.1c1.9,1.9,4.4,2.9,7.1,2.9s5.2-1.1,7.1-2.9c1.9-1.9,2.9-4.4,2.9-7.1S173.2,192.2,171.3,190.3z"/>
	</g>
</g>
<g>
	<g>
		<path class="st0" d="M327.8,256.5l-32.4-92.4c-1-2.9-3.3-5.1-6.1-6.1l-92.4-32.4c-3.6-1.3-7.7-0.3-10.4,2.4
			c-2.7,2.7-3.6,6.8-2.4,10.4l32.4,92.4c1,2.9,3.3,5.1,6.1,6.1l92.4,32.4c1.1,0.4,2.2,0.6,3.3,0.6c2.6,0,5.2-1,7.1-2.9
			C328.2,264.2,329.1,260.1,327.8,256.5z M209.9,151.3l57.8,20.2l-37.6,37.6L209.9,151.3z M244.3,223.2l37.6-37.6l20.2,57.8
			L244.3,223.2z"/>
	</g>
</g>
</svg>
