<?xml version="1.0" encoding="utf-8"?>
<!--Generator: Adobe Illustrator 22.1.0, SVG Export Plug-In . SVG Version: 6.00 Build 0)-->
<svg xmlns="http://www.w3.org/2000/svg" xmlns:xlink="http://www.w3.org/1999/xlink" id="Layer_1" x="0px" y="0px" style="enable-background:new 0 0 184 148" version="1.1" viewBox="0 0 184 148" xml:space="preserve">
    <g>
        <g>
            <g>
                <path d="M130.4,65c0-4.8-3.9-8.7-8.6-8.7c-4.8,0-8.6,3.9-8.6,8.7c0,4.8,3.9,8.7,8.6,8.7
                                            C126.5,73.7,130.4,69.8,130.4,65z M118.5,65c0-1.8,1.5-3.3,3.3-3.3c1.8,0,3.3,1.5,3.3,3.3c0,1.8-1.5,3.3-3.3,3.3
                                            C120,68.3,118.5,66.8,118.5,65z" class="money__01"/>
                <path d="M151.5,44.4c-5.1,0-9.2-4.1-9.2-9.2c0-0.7-0.3-1.4-0.8-1.9c-0.5-0.5-1.2-0.8-1.9-0.8l-79.8,0
                                            c-1.5,0-2.7,1.2-2.7,2.7c0,1.5,1.2,2.7,2.7,2.7l77.3,0c1.1,5.9,5.8,10.6,11.7,11.7v30.9c-5.9,1.1-10.6,5.8-11.7,11.7L29,92.2
                                            c-1.1-5.9-5.8-10.6-11.7-11.7V49.6c5.9-1.1,10.6-5.8,11.7-11.7h20.1c1.5,0,2.7-1.2,2.7-2.7c0-1.5-1.2-2.7-2.7-2.7H26.5
                                            c-1.5,0-2.7,1.2-2.7,2.7c0,5.1-4.1,9.2-9.2,9.2c-1.5,0-2.7,1.2-2.7,2.7V83c0,1.5,1.2,2.7,2.7,2.7c5.1,0,9.2,4.1,9.2,9.2
                                            c0,0.7,0.3,1.4,0.8,1.9c0.5,0.5,1.2,0.8,1.9,0.8l113.1,0c1.5,0,2.7-1.2,2.7-2.7c0-5.1,4.1-9.2,9.2-9.2c1.5,0,2.7-1.2,2.7-2.7
                                            V47.1C154.2,45.6,153,44.4,151.5,44.4z" class="money__01"/>
                <path d="M183.2,45.2c-0.5-0.5-1.2-0.8-1.9-0.8l-15.2,0V23.2c0-0.7-0.3-1.4-0.8-1.9c-0.5-0.5-1.2-0.8-1.9-0.8
                                            l-160.7,0c-1.5,0-2.7,1.2-2.7,2.7v83.7c0,0.7,0.3,1.4,0.8,1.9c0.5,0.5,1.2,0.8,1.9,0.8h15.2v15.2c0,0.7,0.3,1.4,0.8,1.9
                                            c0.5,0.5,1.2,0.8,1.9,0.8l160.7,0c1.5,0,2.7-1.2,2.7-2.7V47.1C184,46.4,183.7,45.7,183.2,45.2z M5.4,104.2V25.9l155.4,0v78.3
                                            L5.4,104.2z M178.6,122.1l-155.4,0v-12.5l140.2,0c1.5,0,2.7-1.2,2.7-2.7V49.8l12.5,0V122.1z" class="money__01"/>
                <path d="M44.4,56.4c-4.8,0-8.6,3.9-8.6,8.7c0,4.8,3.9,8.7,8.6,8.7S53,69.8,53,65C53,60.3,49.1,56.4,44.4,56.4z
                                             M44.4,68.3c-1.8,0-3.3-1.5-3.3-3.3c0-1.8,1.5-3.3,3.3-3.3c1.8,0,3.3,1.5,3.3,3.3C47.6,66.8,46.2,68.3,44.4,68.3z" class="money__01"/>
                <path d="M103.6,65c0-11.4-9.2-20.6-20.6-20.6S62.5,53.7,62.5,65s9.2,20.6,20.6,20.6C94.4,85.7,103.6,76.4,103.6,65z
                                             M67.9,65c0-8.4,6.8-15.2,15.2-15.2S98.2,56.6,98.2,65c0,8.4-6.8,15.2-15.2,15.2C74.7,80.3,67.9,73.4,67.9,65z" class="money__01"/>
            </g>
        </g>
    </g>
</svg>
