<?xml version="1.0" encoding="utf-8"?>
<!-- Generator: Adobe Illustrator 22.1.0, SVG Export Plug-In . SVG Version: 6.00 Build 0)  -->
<svg version="1.1" id="Layer_4" xmlns="http://www.w3.org/2000/svg" xmlns:xlink="http://www.w3.org/1999/xlink" x="0px" y="0px"
	 viewBox="0 0 184 148" style="enable-background:new 0 0 184 148;" xml:space="preserve">
<style type="text/css">
	.st0{fill:#FFFFFF;}
</style>
<g>
	<path class="st0" d="M36.5,48.3h61.9c1.6,0,2.9-1.3,2.9-2.9s-1.3-2.9-2.9-2.9H36.5c-1.6,0-2.9,1.3-2.9,2.9S34.9,48.3,36.5,48.3z"/>
	<path class="st0" d="M36.5,65.6h61.9c1.6,0,2.9-1.3,2.9-2.9c0-1.6-1.3-2.9-2.9-2.9H36.5c-1.6,0-2.9,1.3-2.9,2.9
		S34.9,65.6,36.5,65.6z"/>
	<path class="st0" d="M36.5,83h61.9c1.6,0,2.9-1.3,2.9-2.9s-1.3-2.9-2.9-2.9H36.5c-1.6,0-2.9,1.3-2.9,2.9S34.9,83,36.5,83z"/>
	<path class="st0" d="M98.4,94.5h-15c-1.6,0-2.9,1.3-2.9,2.9s1.3,2.9,2.9,2.9h15c1.6,0,2.9-1.3,2.9-2.9S100,94.5,98.4,94.5z"/>
	<path class="st0" d="M73.2,94.5c-1.6,0-2.9,1.3-2.9,2.9s1.3,2.9,2.9,2.9h0c1.6,0,2.9-1.3,2.9-2.9S74.9,94.5,73.2,94.5L73.2,94.5z"
		/>
	<path class="st0" d="M160.5,27.6c-0.4-0.4-0.9-0.6-1.4-0.7l5.7-9.9c1.2-2,1.5-4.3,0.9-6.6c-0.6-2.2-2-4.1-4-5.3l-7-4
		c-2-1.2-4.3-1.5-6.6-0.9c-2.2,0.6-4.1,2-5.3,4L132,23.2H34.8C25.5,23.2,18,30.7,18,40v64.7c0,9.2,7.5,16.8,16.8,16.8h6.6
		c1.6,0,2.9-1.3,2.9-2.9s-1.3-2.9-2.9-2.9h-6.6c-6.1,0-11-4.9-11-11V40c0-6.1,4.9-11,11-11h93.9l-21.9,38c-0.2,0.4-0.4,0.8-0.4,1.3
		l-1.2,21.5c-0.1,1.1,0.5,2.1,1.4,2.7c0.5,0.3,1,0.4,1.5,0.4c0.5,0,1.1-0.2,1.6-0.5l18.2-11.7c0.4-0.2,0.7-0.6,0.9-1l27.7-48
		c0.1,0.1,0.1,0.2,0.2,0.2c2.3,2.1,3.6,5,3.6,8.1v64.7c0,6.1-4.9,11-11,11h-30.6c-0.8,0-1.5,0.3-2,0.8l-21.7,21.6v-19.6
		c0-1.6-1.3-2.9-2.9-2.9H67.4c-1.6,0-2.9,1.3-2.9,2.9s1.3,2.9,2.9,2.9h21.7v23.7c0,1.2,0.7,2.2,1.8,2.7c0.4,0.1,0.7,0.2,1.1,0.2
		c0.8,0,1.5-0.3,2-0.8l25.7-25.7h29.4c9.2,0,16.8-7.5,16.8-16.8V40C166,35.3,164,30.7,160.5,27.6z M147.9,7.2c0.4-0.7,1-1.1,1.7-1.3
		c0.7-0.2,1.5-0.1,2.2,0.3l7,4c0.7,0.4,1.1,1,1.3,1.7c0.2,0.7,0.1,1.5-0.3,2.2l-5,8.7l-12-6.9L147.9,7.2z M125.1,74.2l-12-6.9
		L140,20.9l12,6.9L125.1,74.2z M111.8,73.2l8.8,5.1l-9.4,6.1L111.8,73.2z"/>
	<path class="st0" d="M54.7,114.7c-0.8,0-1.5,0.3-2,0.8c-0.5,0.5-0.8,1.3-0.8,2s0.3,1.5,0.8,2c0.5,0.5,1.3,0.8,2,0.8
		c0.8,0,1.5-0.3,2-0.8c0.5-0.5,0.8-1.3,0.8-2c0-0.8-0.3-1.5-0.8-2C56.2,115.1,55.5,114.7,54.7,114.7z"/>
</g>
</svg>
